<?xml version="1.0" standalone="no"?>
<!DOCTYPE svg PUBLIC "-//W3C//DTD SVG 20010904//EN"
 "http://www.w3.org/TR/2001/REC-SVG-20010904/DTD/svg10.dtd">
<svg version="1.0" xmlns="http://www.w3.org/2000/svg"
 width="1024.000000pt" height="1024.000000pt" viewBox="0 0 1024.000000 1024.000000"
 preserveAspectRatio="xMidYMid meet">

<g transform="translate(0.000000,1024.000000) scale(0.100000,-0.100000)"
fill="#000000" stroke="none">
<path d="M4900 7104 c-324 -39 -533 -99 -785 -224 -192 -96 -313 -180 -458
-320 -142 -136 -250 -280 -334 -447 l-68 -133 -43 0 c-59 0 -94 -35 -121 -123
-22 -72 -45 -288 -39 -377 l3 -55 35 2 c19 2 71 8 116 14 l81 11 22 106 c157
745 728 1269 1511 1387 483 73 998 -37 1381 -294 261 -174 437 -373 574 -646
75 -151 125 -291 155 -437 12 -56 25 -106 29 -110 6 -6 190 -37 225 -38 14 0
0 295 -18 378 -29 132 -67 182 -141 182 l-41 0 -46 98 c-248 524 -764 886
-1433 1003 -81 15 -170 21 -340 23 -126 2 -246 2 -265 0z"/>
<path d="M3155 5369 c-223 -36 -244 -46 -279 -131 -43 -102 -1 -560 89 -983
44 -207 63 -250 128 -283 51 -27 45 -27 272 13 147 25 139 16 132 148 -4 62
-11 153 -16 202 -5 50 -28 286 -51 525 -23 239 -46 452 -51 473 -16 62 -43 66
-224 36z"/>
<path d="M6899 5383 c-9 -2 -22 -16 -29 -31 -11 -25 -130 -1188 -130 -1278 0
-26 6 -46 18 -56 10 -9 84 -27 180 -44 l163 -28 44 22 c62 30 87 80 123 247
73 330 101 538 109 796 7 212 1 240 -56 292 -36 32 -45 35 -207 61 -168 26
-184 28 -215 19z"/>
<path d="M2720 4984 c-128 -122 -187 -315 -145 -479 38 -150 125 -257 260
-322 42 -19 78 -33 80 -31 3 3 -8 68 -25 144 -40 191 -78 463 -86 617 -4 70
-11 127 -16 127 -5 0 -36 -25 -68 -56z"/>
<path d="M7441 4963 c-4 -165 -49 -491 -100 -719 -11 -49 -19 -90 -17 -91 6
-6 87 27 130 52 58 34 138 120 169 182 100 197 64 424 -93 586 -36 37 -71 67
-76 67 -7 0 -12 -30 -13 -77z"/>
<path d="M6467 3559 c7 -7 15 -10 18 -7 3 3 -2 9 -12 12 -14 6 -15 5 -6 -5z"/>
<path d="M6987 3485 c-4 -8 -3 -16 1 -19 4 -3 9 4 9 15 2 23 -3 25 -10 4z"/>
</g>
</svg>
